<svg xmlns="http://www.w3.org/2000/svg" xmlns:xlink="http://www.w3.org/1999/xlink" width="1130" zoomAndPan="magnify" viewBox="0 0 847.5 1477.5" height="1970" preserveAspectRatio="xMidYMid meet" version="1.0"><defs><clipPath id="7965b8ce75"><path d="M 0 0.1875 L 847 0.1875 L 847 1476.816406 L 0 1476.816406 Z M 0 0.1875 " clip-rule="nonzero"/></clipPath><clipPath id="6d5c69d76a"><path d="M 484 1090 L 847 1090 L 847 1476.816406 L 484 1476.816406 Z M 484 1090 " clip-rule="nonzero"/></clipPath><clipPath id="51a3ea6753"><path d="M 507 1145 L 847 1145 L 847 1476.816406 L 507 1476.816406 Z M 507 1145 " clip-rule="nonzero"/></clipPath><clipPath id="891ed2b527"><path d="M 528 1186 L 847 1186 L 847 1476.816406 L 528 1476.816406 Z M 528 1186 " clip-rule="nonzero"/></clipPath><clipPath id="0cb40aa0f3"><path d="M 547 1215 L 847 1215 L 847 1476.816406 L 547 1476.816406 Z M 547 1215 " clip-rule="nonzero"/></clipPath><clipPath id="799b464790"><path d="M 564 1233 L 847 1233 L 847 1476.816406 L 564 1476.816406 Z M 564 1233 " clip-rule="nonzero"/></clipPath><clipPath id="797ea6b3f4"><path d="M 581 1244 L 847 1244 L 847 1476.816406 L 581 1476.816406 Z M 581 1244 " clip-rule="nonzero"/></clipPath><clipPath id="6bf5680271"><path d="M 0 0.1875 L 330 0.1875 L 330 394 L 0 394 Z M 0 0.1875 " clip-rule="nonzero"/></clipPath><clipPath id="cd1f6cf7ea"><path d="M 10.574219 533.738281 L -271.191406 220.257812 L 172.257812 -178.324219 L 454.023438 135.15625 Z M 10.574219 533.738281 " clip-rule="nonzero"/></clipPath><clipPath id="6b3e5f1cc7"><path d="M 10.574219 533.738281 L -271.191406 220.257812 L 172.257812 -178.324219 L 454.023438 135.15625 Z M 10.574219 533.738281 " clip-rule="nonzero"/></clipPath><clipPath id="cc22907e16"><path d="M 10.574219 533.738281 L -271.191406 220.257812 L 172.257812 -178.328125 L 454.023438 135.15625 Z M 10.574219 533.738281 " clip-rule="nonzero"/></clipPath></defs><g clip-path="url(#7965b8ce75)"><path fill="#ffffff" d="M 0 0.1875 L 847.5 0.1875 L 847.5 1485.1875 L 0 1485.1875 Z M 0 0.1875 " fill-opacity="1" fill-rule="nonzero"/><path fill="#ffffff" d="M 0 0.1875 L 847.5 0.1875 L 847.5 1477.6875 L 0 1477.6875 Z M 0 0.1875 " fill-opacity="1" fill-rule="nonzero"/><path fill="#efefef" d="M 0 0.1875 L 847.5 0.1875 L 847.5 1477.6875 L 0 1477.6875 Z M 0 0.1875 " fill-opacity="1" fill-rule="nonzero"/></g><g clip-path="url(#6d5c69d76a)"><path fill="#cbcbcb" d="M 919.332031 1230.902344 C 916.179688 1229.640625 913.234375 1228.167969 910.082031 1226.90625 C 878.96875 1213.453125 856.683594 1194.113281 835.660156 1162.371094 C 832.925781 1158.375 830.195312 1153.75 827.25 1149.125 C 810.851562 1122.636719 790.25 1089.421875 756.402344 1090.265625 C 716.460938 1090.894531 692.492188 1131.675781 669.160156 1170.988281 C 654.863281 1195.164062 641.40625 1217.867188 625.011719 1231.113281 C 612.1875 1241.414062 594.949219 1250.664062 576.867188 1260.542969 C 533.351562 1284.085938 484.15625 1310.785156 484.15625 1360.398438 C 484.15625 1405.382812 533.351562 1435.234375 576.65625 1461.511719 C 598.101562 1474.546875 618.492188 1486.738281 631.738281 1499.984375 C 644.773438 1513.019531 655.492188 1531.9375 667.054688 1552.117188 C 689.339844 1591.640625 712.464844 1632.421875 755.984375 1632.421875 C 755.984375 1632.421875 756.191406 1632.421875 756.191406 1632.421875 C 898.308594 1631.792969 1028.019531 1502.085938 1028.230469 1360.398438 C 1028.441406 1277.992188 982.609375 1258.230469 919.332031 1230.902344 Z M 756.191406 1630.53125 C 756.191406 1630.53125 755.984375 1630.53125 755.984375 1630.53125 C 713.726562 1630.53125 690.8125 1590.167969 668.738281 1551.277344 C 657.386719 1531.097656 646.453125 1511.757812 633.210938 1498.722656 C 619.753906 1485.480469 599.363281 1473.074219 577.707031 1460.042969 C 534.820312 1433.765625 486.257812 1404.332031 486.257812 1360.398438 C 486.257812 1312.046875 534.820312 1285.769531 577.707031 1262.433594 C 596 1252.554688 613.238281 1243.304688 626.0625 1232.792969 C 642.878906 1219.339844 656.335938 1196.425781 670.839844 1172.039062 C 693.753906 1133.148438 717.722656 1092.996094 756.191406 1092.15625 C 756.613281 1092.15625 756.824219 1092.15625 757.246094 1092.15625 C 789.199219 1092.15625 809.171875 1124.320312 825.148438 1150.175781 C 828.089844 1154.800781 830.824219 1159.425781 833.558594 1163.421875 C 855 1195.585938 877.496094 1215.136719 909.03125 1228.800781 C 912.183594 1230.058594 915.335938 1231.53125 918.28125 1232.792969 C 980.929688 1259.703125 1026.335938 1279.253906 1026.128906 1360.398438 C 1025.917969 1501.246094 897.257812 1629.898438 756.191406 1630.53125 Z M 756.191406 1630.53125 " fill-opacity="1" fill-rule="nonzero"/></g><g clip-path="url(#51a3ea6753)"><path fill="#cbcbcb" d="M 1002.160156 1358.925781 C 999.429688 1296.910156 951.074219 1271.894531 899.78125 1245.40625 L 893.472656 1242.042969 C 875.183594 1232.582031 856.683594 1215.34375 838.8125 1198.527344 C 811.902344 1173.300781 783.945312 1147.234375 754.722656 1145.972656 C 721.925781 1144.5 691.230469 1176.875 663.902344 1205.464844 C 650.867188 1219.128906 638.464844 1232.164062 626.691406 1240.78125 C 615.550781 1248.980469 602.726562 1256.339844 589.269531 1263.90625 C 549.75 1286.398438 508.753906 1309.734375 507.28125 1358.714844 C 505.808594 1401.8125 549.328125 1430.609375 587.800781 1456.046875 C 605.039062 1467.398438 621.226562 1478.332031 632.578125 1489.683594 C 643.929688 1501.246094 654.230469 1516.589844 664.953125 1532.777344 C 688.710938 1568.726562 713.097656 1605.726562 754.933594 1606.144531 C 755.5625 1606.144531 756.191406 1606.144531 756.824219 1606.144531 C 818.210938 1606.144531 881.699219 1576.925781 931.105469 1525.632812 C 978.617188 1476.648438 1004.683594 1415.683594 1002.160156 1358.925781 Z M 929.421875 1524.371094 C 880.230469 1575.242188 817.371094 1604.253906 756.613281 1604.253906 C 755.984375 1604.253906 755.351562 1604.253906 754.722656 1604.253906 C 713.9375 1603.832031 689.972656 1567.253906 666.636719 1531.9375 C 655.914062 1515.539062 645.613281 1499.984375 634.050781 1488.421875 C 622.699219 1477.070312 606.300781 1466.136719 589.0625 1454.578125 C 551.21875 1429.351562 508.121094 1400.757812 509.59375 1358.925781 C 511.277344 1310.996094 551.640625 1288.082031 590.53125 1265.796875 C 604.199219 1258.019531 617.023438 1250.664062 628.164062 1242.464844 C 640.148438 1233.632812 652.550781 1220.601562 665.585938 1206.9375 C 691.863281 1179.398438 721.714844 1148.074219 752.828125 1148.074219 C 753.460938 1148.074219 754.089844 1148.074219 754.722656 1148.074219 C 783.3125 1149.335938 810.851562 1175.191406 837.550781 1200.210938 C 855.421875 1217.027344 873.921875 1234.265625 892.632812 1243.933594 L 898.9375 1247.296875 C 949.605469 1273.578125 997.535156 1298.171875 1000.269531 1358.925781 C 1002.582031 1415.265625 976.722656 1475.597656 929.421875 1524.371094 Z M 929.421875 1524.371094 " fill-opacity="1" fill-rule="nonzero"/></g><g clip-path="url(#891ed2b527)"><path fill="#cbcbcb" d="M 881.699219 1255.496094 L 877.496094 1252.976562 C 866.5625 1246.667969 855.421875 1238.890625 843.4375 1230.902344 C 812.324219 1209.667969 780.160156 1187.804688 751.148438 1186.753906 C 718.140625 1185.703125 680.300781 1212.191406 646.875 1235.527344 C 640.355469 1239.941406 634.261719 1244.355469 628.585938 1248.140625 C 621.4375 1252.976562 613.867188 1257.597656 605.878906 1262.433594 C 569.507812 1284.507812 528.09375 1309.523438 528.304688 1354.722656 C 528.515625 1394.453125 565.515625 1423.253906 598.101562 1448.691406 C 610.925781 1458.78125 623.117188 1468.242188 633 1477.910156 C 642.039062 1487.160156 651.078125 1498.511719 660.328125 1510.707031 C 684.292969 1542.027344 711.625 1577.554688 750.515625 1577.554688 C 750.726562 1577.554688 751.148438 1577.554688 751.359375 1577.554688 C 809.171875 1576.714844 873.5 1544.972656 919.121094 1494.308594 C 958.222656 1451.003906 978.195312 1400.128906 974.199219 1354.511719 C 969.367188 1306.582031 922.90625 1279.460938 881.699219 1255.496094 Z M 917.230469 1493.046875 C 872.03125 1543.078125 808.332031 1574.824219 750.9375 1575.453125 C 750.726562 1575.453125 750.515625 1575.453125 750.097656 1575.453125 C 712.253906 1575.453125 685.347656 1540.347656 661.589844 1509.445312 C 652.128906 1497.25 643.300781 1485.6875 634.050781 1476.4375 C 624.167969 1466.558594 611.976562 1457.097656 599.152344 1447.007812 C 565.304688 1420.730469 530.40625 1393.402344 530.195312 1354.722656 C 529.988281 1310.574219 570.769531 1285.980469 606.71875 1264.117188 C 614.707031 1259.28125 622.488281 1254.65625 629.636719 1249.820312 C 635.523438 1245.828125 641.617188 1241.621094 647.925781 1237.207031 C 678.828125 1215.554688 717.089844 1188.855469 749.046875 1188.855469 C 749.675781 1188.855469 750.308594 1188.855469 750.9375 1188.855469 C 779.320312 1189.910156 811.273438 1211.5625 842.175781 1232.582031 C 854.160156 1240.78125 865.511719 1248.351562 876.445312 1254.867188 L 880.648438 1257.390625 C 921.433594 1281.144531 967.472656 1308.050781 971.679688 1354.933594 C 975.671875 1399.917969 955.910156 1450.160156 917.230469 1493.046875 Z M 917.230469 1493.046875 " fill-opacity="1" fill-rule="nonzero"/></g><g clip-path="url(#0cb40aa0f3)"><path fill="#cbcbcb" d="M 860.675781 1260.332031 C 812.113281 1230.269531 773.222656 1215.34375 745.261719 1215.34375 C 709.523438 1215.554688 618.074219 1252.765625 572.875 1298.59375 C 555.632812 1316.039062 546.804688 1333.070312 547.015625 1349.046875 C 547.4375 1388.355469 580.441406 1417.367188 609.664062 1442.804688 C 618.074219 1450.160156 626.0625 1457.097656 633 1464.246094 C 639.9375 1471.183594 646.453125 1478.75 653.601562 1486.738281 C 678.617188 1514.910156 706.789062 1546.863281 745.261719 1547.285156 C 745.683594 1547.285156 746.101562 1547.285156 746.734375 1547.285156 C 796.765625 1547.285156 853.320312 1519.113281 894.3125 1473.707031 C 930.054688 1433.976562 948.132812 1388.566406 943.507812 1349.046875 C 938.882812 1308.472656 893.683594 1280.511719 860.675781 1260.332031 Z M 892.632812 1472.023438 C 852.058594 1517.011719 796.136719 1544.972656 746.734375 1544.972656 C 746.3125 1544.972656 745.890625 1544.972656 745.261719 1544.972656 C 707.839844 1544.550781 681.140625 1514.277344 655.285156 1485.269531 C 648.136719 1477.28125 641.40625 1469.710938 634.46875 1462.773438 C 627.324219 1455.628906 619.335938 1448.691406 610.925781 1441.332031 C 582.125 1416.105469 549.539062 1387.304688 549.117188 1349.046875 C 548.90625 1333.699219 557.527344 1317.300781 574.34375 1300.0625 C 618.28125 1255.496094 710.574219 1217.65625 745.261719 1217.449219 C 745.472656 1217.449219 745.472656 1217.449219 745.683594 1217.449219 C 773.222656 1217.449219 811.695312 1232.582031 859.835938 1262.222656 C 892.421875 1282.40625 936.992188 1309.945312 941.617188 1349.253906 C 945.820312 1387.9375 928.160156 1432.921875 892.632812 1472.023438 Z M 892.632812 1472.023438 " fill-opacity="1" fill-rule="nonzero"/></g><g clip-path="url(#799b464790)"><path fill="#cbcbcb" d="M 840.074219 1267.480469 C 803.914062 1247.507812 762.078125 1233.632812 738.324219 1233.632812 C 705.109375 1233.632812 626.0625 1253.816406 586.75 1293.546875 C 572.03125 1308.472656 564.675781 1324.660156 564.675781 1341.476562 C 565.09375 1380.789062 596 1410.640625 623.117188 1437.128906 C 626.902344 1440.703125 630.476562 1444.277344 634.050781 1447.847656 C 637.414062 1451.210938 640.566406 1454.578125 643.929688 1457.941406 C 670 1484.636719 699.429688 1514.699219 738.113281 1515.121094 C 738.535156 1515.121094 738.746094 1515.121094 739.164062 1515.121094 C 784.574219 1515.121094 833.347656 1491.15625 869.507812 1451.003906 C 900.410156 1416.527344 915.757812 1376.585938 911.761719 1341.476562 C 909.238281 1317.933594 882.960938 1291.023438 840.074219 1267.480469 Z M 868.035156 1449.53125 C 832.714844 1488.84375 783.523438 1513.019531 739.375 1513.019531 C 739.164062 1513.019531 738.746094 1513.019531 738.535156 1513.019531 C 700.691406 1512.808594 671.472656 1482.957031 645.824219 1456.46875 C 642.460938 1453.105469 639.09375 1449.53125 635.941406 1446.378906 C 632.367188 1442.804688 628.792969 1439.230469 625.011719 1435.65625 C 598.101562 1409.589844 567.617188 1379.738281 567.195312 1341.476562 C 566.988281 1325.289062 574.132812 1309.523438 588.640625 1295.019531 C 627.113281 1256.128906 706.789062 1235.738281 738.746094 1235.738281 C 786.257812 1235.738281 904.195312 1291.023438 910.082031 1341.6875 C 913.863281 1376.164062 898.519531 1415.476562 868.035156 1449.53125 Z M 868.035156 1449.53125 " fill-opacity="1" fill-rule="nonzero"/></g><g clip-path="url(#797ea6b3f4)"><path fill="#cbcbcb" d="M 731.597656 1244.566406 C 731.386719 1244.566406 730.964844 1244.566406 730.753906 1244.566406 C 702.375 1244.984375 633.210938 1256.757812 599.78125 1291.023438 C 587.589844 1303.425781 581.703125 1317.722656 581.914062 1333.277344 C 582.332031 1360.816406 602.304688 1397.816406 634.050781 1429.769531 C 666.425781 1462.144531 702.585938 1481.90625 730.753906 1482.324219 C 731.175781 1482.324219 731.804688 1482.324219 732.4375 1482.324219 C 771.121094 1482.324219 812.113281 1462.773438 842.175781 1429.980469 C 869.296875 1400.339844 882.960938 1365.023438 879.808594 1333.277344 C 874.132812 1281.355469 773.640625 1244.566406 731.597656 1244.566406 Z M 840.285156 1428.507812 C 810.644531 1460.882812 770.277344 1480.222656 732.226562 1480.222656 C 731.804688 1480.222656 731.175781 1480.222656 730.753906 1480.222656 C 703.636719 1479.804688 667.054688 1460.042969 635.523438 1428.296875 C 604.199219 1396.765625 584.226562 1360.398438 583.804688 1333.277344 C 583.59375 1318.351562 589.480469 1304.6875 601.042969 1292.496094 C 613.867188 1279.253906 632.15625 1269.371094 651.5 1262.222656 C 638.042969 1267.269531 625.640625 1274.207031 615.761719 1283.667969 C 603.988281 1295.230469 598.101562 1308.894531 598.3125 1324.660156 C 598.519531 1352.410156 615.550781 1385.835938 642.878906 1412.113281 C 667.265625 1435.65625 695.4375 1448.898438 720.453125 1448.898438 C 721.085938 1448.898438 721.925781 1448.898438 722.554688 1448.898438 C 757.453125 1447.847656 792.984375 1431.03125 817.371094 1403.914062 C 838.394531 1380.789062 848.695312 1352.621094 846.800781 1324.660156 C 843.019531 1271.472656 761.449219 1251.714844 722.554688 1250.453125 C 707.421875 1250.242188 680.929688 1252.34375 656.125 1260.753906 C 684.714844 1250.871094 714.359375 1246.878906 730.546875 1246.667969 C 753.039062 1246.457031 788.988281 1256.546875 818 1271.265625 C 838.8125 1281.773438 874.34375 1303.847656 877.285156 1333.488281 C 880.648438 1364.601562 866.984375 1399.289062 840.285156 1428.507812 Z M 617.230469 1285.347656 C 643.929688 1259.28125 692.914062 1252.765625 718.351562 1252.765625 C 719.824219 1252.765625 721.085938 1252.765625 722.554688 1252.765625 C 740.425781 1253.394531 770.488281 1258.230469 796.765625 1270.003906 C 817.582031 1279.460938 842.808594 1296.699219 844.910156 1324.871094 C 846.800781 1352.199219 836.710938 1379.738281 816.109375 1402.652344 C 791.933594 1429.351562 757.035156 1445.957031 722.765625 1447.007812 C 697.75 1447.847656 669.367188 1434.605469 644.5625 1410.851562 C 617.652344 1384.992188 600.832031 1351.988281 600.625 1324.871094 C 600.414062 1309.734375 606.089844 1296.492188 617.230469 1285.347656 Z M 652.761719 1262.015625 C 653.601562 1261.804688 654.441406 1261.382812 655.074219 1261.171875 C 654.230469 1261.382812 653.601562 1261.804688 652.761719 1262.015625 Z M 652.761719 1262.015625 " fill-opacity="1" fill-rule="nonzero"/></g><path fill="#cbcbcb" d="M 714.359375 1416.316406 C 714.566406 1416.316406 714.777344 1416.316406 714.988281 1416.316406 C 742.316406 1416.105469 769.226562 1404.125 788.570312 1383.523438 C 806.4375 1364.601562 815.6875 1340.847656 814.425781 1316.671875 C 813.375 1296.492188 800.339844 1279.671875 776.796875 1268.320312 C 759.136719 1259.910156 736.011719 1254.65625 714.777344 1254.445312 C 686.398438 1254.234375 649.1875 1260.753906 629.425781 1280.511719 C 619.753906 1290.183594 614.917969 1302.375 615.128906 1316.671875 C 615.96875 1366.285156 665.792969 1416.316406 714.359375 1416.316406 Z M 631.105469 1282.195312 C 649.816406 1263.277344 685.347656 1256.546875 712.886719 1256.546875 C 713.515625 1256.546875 714.148438 1256.546875 714.777344 1256.546875 C 751.359375 1256.96875 810.222656 1273.785156 812.324219 1316.671875 C 813.585938 1340.214844 804.546875 1363.339844 786.886719 1381.839844 C 767.753906 1402.019531 741.476562 1413.792969 714.777344 1414.003906 C 714.566406 1414.003906 714.359375 1414.003906 714.148438 1414.003906 C 666.847656 1414.003906 617.863281 1365.023438 617.230469 1316.460938 C 617.230469 1303.007812 621.855469 1291.445312 631.105469 1282.195312 Z M 631.105469 1282.195312 " fill-opacity="1" fill-rule="nonzero"/><path fill="#cbcbcb" d="M 708.050781 1384.363281 C 708.261719 1384.363281 708.472656 1384.363281 708.679688 1384.363281 C 727.601562 1384.363281 746.941406 1375.953125 761.238281 1361.238281 C 775.535156 1346.734375 783.3125 1327.8125 782.890625 1309.3125 C 782.472656 1292.707031 773.222656 1278.832031 755.773438 1269.582031 C 742.527344 1262.433594 724.660156 1258.230469 708.050781 1258.230469 C 708.050781 1258.230469 708.050781 1258.230469 707.839844 1258.230469 C 687.027344 1258.230469 659.488281 1265.167969 644.351562 1280.511719 C 636.574219 1288.5 632.578125 1298.171875 632.789062 1309.105469 C 633.839844 1346.941406 670.839844 1384.152344 708.050781 1384.363281 Z M 646.03125 1282.195312 C 660.75 1267.269531 687.660156 1260.542969 708.050781 1260.542969 C 708.050781 1260.542969 708.050781 1260.542969 708.261719 1260.542969 C 736.011719 1260.542969 780.160156 1273.785156 781 1309.523438 C 781.421875 1327.601562 773.640625 1345.890625 759.976562 1359.976562 C 745.683594 1374.480469 726.761719 1382.679688 708.261719 1382.46875 C 672.941406 1382.050781 636.152344 1345.261719 635.3125 1309.523438 C 634.890625 1299.011719 638.675781 1289.972656 646.03125 1282.195312 Z M 646.03125 1282.195312 " fill-opacity="1" fill-rule="nonzero"/><path fill="#cbcbcb" d="M 701.953125 1353.878906 C 702.164062 1353.878906 702.375 1353.878906 702.585938 1353.878906 C 730.546875 1353.671875 753.039062 1330.964844 752.828125 1303.636719 C 752.828125 1291.445312 746.734375 1281.355469 735.800781 1274.417969 C 726.761719 1268.742188 714.777344 1265.378906 702.585938 1265.378906 C 689.972656 1265.167969 672.730469 1268.742188 662.011719 1279.671875 C 655.492188 1286.191406 652.128906 1294.386719 652.339844 1303.847656 C 652.550781 1317.300781 657.804688 1329.914062 667.265625 1339.375 C 676.304688 1348.625 688.710938 1353.878906 701.953125 1353.878906 Z M 663.273438 1280.933594 C 673.363281 1270.84375 689.550781 1267.269531 701.535156 1267.269531 C 701.742188 1267.269531 702.164062 1267.269531 702.375 1267.269531 C 735.378906 1267.691406 750.515625 1286.398438 750.515625 1303.425781 C 750.726562 1329.707031 729.074219 1351.359375 702.375 1351.566406 C 689.550781 1351.777344 677.566406 1346.734375 668.527344 1337.484375 C 659.488281 1328.234375 654.441406 1316.25 654.230469 1303.425781 C 654.023438 1294.597656 657.175781 1287.03125 663.273438 1280.933594 Z M 663.273438 1280.933594 " fill-opacity="1" fill-rule="nonzero"/><path fill="#cbcbcb" d="M 698.378906 1325.289062 C 698.378906 1325.289062 698.589844 1325.289062 698.589844 1325.289062 C 705.527344 1325.289062 712.253906 1322.347656 717.089844 1317.300781 C 721.714844 1312.46875 724.238281 1306.160156 724.238281 1299.433594 C 724.027344 1285.980469 713.9375 1277.148438 698.589844 1277.148438 C 683.242188 1276.941406 673.152344 1285.769531 672.941406 1299.433594 C 672.941406 1306.371094 675.464844 1312.886719 680.300781 1317.722656 C 685.136719 1322.558594 691.441406 1325.289062 698.378906 1325.289062 Z M 698.378906 1279.253906 C 698.589844 1279.253906 698.589844 1279.253906 698.800781 1279.253906 C 713.097656 1279.460938 722.136719 1287.242188 722.347656 1299.433594 C 722.347656 1305.53125 720.035156 1311.414062 715.828125 1315.832031 C 711.414062 1320.457031 705.109375 1322.976562 698.800781 1322.976562 C 692.492188 1322.976562 686.398438 1320.664062 681.980469 1316.039062 C 677.566406 1311.625 675.253906 1305.738281 675.253906 1299.433594 C 675.253906 1287.242188 684.292969 1279.253906 698.378906 1279.253906 Z M 698.378906 1279.253906 " fill-opacity="1" fill-rule="nonzero"/><g clip-path="url(#6bf5680271)"><g clip-path="url(#cd1f6cf7ea)"><g clip-path="url(#6b3e5f1cc7)"><g clip-path="url(#cc22907e16)"><path fill="#cbcbcb" d="M 11.691406 -22.390625 C -14.675781 5.125 -10.8125 34.75 -6.984375 63.449219 C -0.972656 109.277344 4.753906 152.660156 -107.28125 186.695312 C -142.808594 197.464844 -168.449219 211.441406 -183.597656 228.238281 C -197.230469 243.355469 -202.25 260.4375 -198.289062 278.835938 C -192.457031 307.640625 -164.03125 338.734375 -122.625 362.136719 C -81.539062 385.351562 -35.289062 396.605469 1.058594 392.414062 C 97.613281 381.359375 175.644531 350.046875 233.078125 299.539062 C 281.890625 256.617188 313.613281 201.058594 324.902344 138.882812 C 338.914062 61.847656 319.039062 -14.636719 276.558594 -61.894531 C 264.546875 -75.441406 250.144531 -86.679688 234 -95.078125 C 203.652344 -110.601562 168.847656 -113.371094 133.191406 -103.277344 C 93.097656 -91.742188 52.25 -64.574219 11.691406 -22.390625 Z M 232.878906 -92.960938 C 248.699219 -84.746094 262.941406 -73.679688 274.800781 -60.3125 C 316.804688 -13.582031 336.46875 62.136719 322.582031 138.421875 C 297.71875 275.644531 177.359375 369.667969 0.769531 389.96875 C -35.15625 394.097656 -80.738281 382.878906 -121.417969 359.9375 C -142.328125 348.183594 -159.699219 334.523438 -172.59375 320.175781 C -185.011719 306.359375 -193.128906 292.015625 -195.992188 278.203125 C -199.65625 260.492188 -194.925781 244.148438 -181.742188 229.59375 C -166.867188 213.203125 -141.570312 199.375 -106.554688 188.746094 C -54.835938 172.964844 -24.421875 154.378906 -10.71875 130.132812 C 1.324219 108.644531 -1.707031 85.433594 -4.695312 62.984375 C -8.382812 34.792969 -12.273438 5.671875 13.371094 -20.875 C 116.683594 -128.375 195.269531 -112.136719 232.878906 -92.960938 Z M 14.546875 69.871094 C 19.21875 111.019531 23.671875 149.976562 -76.222656 181.050781 C -108.007812 190.847656 -130.980469 203.539062 -144.542969 218.914062 C -156.769531 232.761719 -161.199219 248.203125 -157.746094 265.148438 C -146.515625 319.96875 -49.71875 376.480469 20.820312 369.242188 C 62.789062 364.929688 100.714844 356.296875 133.410156 343.617188 C 151.8125 336.464844 169.628906 327.769531 186.355469 317.511719 C 222.832031 295.222656 252.585938 267.046875 274.652344 233.6875 C 302.457031 191.832031 317.078125 142.574219 316.585938 92.261719 C 316.0625 45.632812 302.386719 2.082031 278.0625 -30.46875 C 275.332031 -34.21875 272.414062 -37.644531 269.40625 -40.988281 C 241.324219 -72.230469 204.226562 -86.9375 163.832031 -82.289062 C 120.832031 -77.53125 76.644531 -52.132812 32.574219 -6.949219 C 8.550781 17.503906 11.570312 44.066406 14.546875 69.871094 Z M 164.210938 -79.925781 C 208.140625 -84.886719 247.988281 -66.761719 276.3125 -29.054688 C 320.96875 30.726562 334.167969 139.625 272.710938 232.414062 C 250.828125 265.445312 221.339844 293.382812 185.125 315.433594 C 168.398438 325.691406 150.839844 334.316406 132.523438 341.390625 C 99.917969 353.992188 62.246094 362.554688 20.445312 366.875 C -32.144531 372.296875 -99.503906 341.988281 -134.070312 303.53125 C -145.222656 291.121094 -152.980469 277.886719 -155.625 264.671875 C -160.53125 240.441406 -150.675781 206.601562 -75.667969 183.257812 C -29.476562 168.945312 -2.171875 152.039062 10.316406 130.15625 C 21.332031 110.710938 19.007812 89.886719 16.738281 69.652344 C 13.894531 44.523438 10.933594 18.386719 34.242188 -5.269531 C 78.042969 -50.046875 121.800781 -75.21875 164.210938 -79.925781 Z M 36.246094 76.300781 C 39.488281 112.847656 42.5 147.371094 -45.152344 175.238281 C -112.949219 197.039062 -121.765625 228.667969 -117.113281 251.378906 C -112.417969 274.84375 -90.070312 300.417969 -57.324219 319.671875 C -25.148438 338.640625 11.539062 348.464844 40.59375 345.902344 C 78.742188 342.476562 112.402344 335.292969 140.820312 324.230469 C 157.171875 317.804688 172.847656 309.921875 187.679688 300.566406 C 219.6875 280.390625 246.015625 255.132812 265.871094 225.511719 C 290.820312 188.449219 304.132812 144.820312 304.339844 100.242188 C 304.378906 58.84375 292.789062 20.09375 271.640625 -9.105469 C 268.90625 -12.851562 265.996094 -16.445312 262.914062 -19.875 C 238.628906 -46.894531 206.386719 -59.917969 170.832031 -56.441406 C 132.75 -52.761719 93.28125 -30.96875 53.707031 8.417969 C 32.019531 29.980469 34.109375 53.558594 36.246094 76.300781 Z M 170.960938 -54.171875 C 210.054688 -57.964844 245.035156 -41.359375 269.640625 -7.785156 C 308.207031 45.21875 318.617188 141.984375 263.761719 224.226562 C 244.167969 253.613281 218.027344 278.542969 186.28125 298.480469 C 171.539062 307.757812 156.03125 315.648438 139.851562 321.914062 C 111.777344 332.832031 78.199219 340.101562 40.304688 343.453125 C 11.671875 345.960938 -24.433594 336.25 -56.203125 317.550781 C -71.890625 308.421875 -85.070312 297.832031 -95.035156 286.742188 C -105.636719 274.949219 -112.523438 262.683594 -114.914062 250.992188 C -119.363281 229.214844 -110.699219 198.832031 -44.519531 177.535156 C 45.007812 149.09375 41.714844 111.960938 38.515625 76.171875 C 36.40625 52.925781 34.484375 30.949219 55.289062 10.179688 C 94.511719 -28.890625 133.382812 -50.464844 170.960938 -54.171875 Z M 57.699219 82.636719 C 58.554688 97.933594 59.476562 113.65625 50.734375 128.195312 C 40.882812 144.6875 19.625 158.226562 -14.246094 169.417969 C -73.121094 188.925781 -80.75 217.101562 -76.71875 237.34375 C -68.164062 281.046875 4.847656 326.320312 60.285156 322.472656 C 94.941406 320.121094 123.582031 314.265625 147.980469 304.746094 C 162.195312 299.132812 175.820312 291.976562 188.59375 283.515625 C 215.582031 266.257812 238.828125 243.773438 256.921875 217.328125 C 278.847656 185.050781 291.023438 147.058594 291.859375 107.964844 C 292.621094 71.796875 283.042969 37.765625 264.976562 12 C 262.332031 8.171875 259.34375 4.492188 256.261719 1.058594 C 235.695312 -21.824219 208.21875 -33.085938 177.757812 -30.847656 C 144.351562 -28.34375 109.679688 -10.066406 74.855469 23.621094 C 55.410156 42.367188 56.492188 62.875 57.699219 82.636719 Z M 177.792969 -28.328125 C 207.496094 -30.527344 234.230469 -19.554688 254.402344 2.886719 C 257.488281 6.320312 260.316406 9.824219 262.882812 13.5625 C 300.726562 67.535156 297.335938 152.839844 254.804688 216.210938 C 236.972656 242.417969 213.992188 264.667969 187.175781 281.765625 C 174.492188 290.144531 161.042969 297.140625 146.828125 302.757812 C 122.6875 312.207031 94.300781 317.992188 59.8125 320.351562 C 34.746094 322.039062 3.457031 313.089844 -23.976562 296.378906 C -35.996094 289.203125 -46.925781 280.410156 -56.425781 270.019531 C -66.15625 259.191406 -72.507812 247.878906 -74.609375 237.039062 C -80.082031 209.339844 -58.929688 186.828125 -13.703125 171.792969 C 63.433594 146.21875 61.640625 113.9375 59.882812 82.582031 C 58.78125 62.410156 57.621094 43.40625 76.09375 25.53125 C 110.8125 -7.746094 144.886719 -25.800781 177.792969 -28.328125 Z M 79.230469 89.058594 C 79.605469 114.976562 79.933594 141.726562 16.734375 163.6875 C -33.226562 181.066406 -39.660156 205.785156 -36.253906 223.566406 C -32.71875 242.027344 -16.75 261.5625 7.574219 276.933594 C 30.996094 291.835938 58.121094 300.230469 80.046875 299.300781 C 110.542969 297.984375 135.257812 293.429688 155.300781 285.4375 C 167.550781 280.472656 179.117188 274.214844 189.832031 266.652344 C 212.691406 251.355469 232.425781 231.867188 248.050781 209.230469 C 285.808594 153.65625 290.015625 81.296875 258.210938 33.515625 C 255.65625 29.605469 252.753906 25.847656 249.589844 22.328125 C 233.320312 3.699219 209.214844 -6.296875 184.5 -4.925781 C 155.765625 -3.601562 125.972656 11.246094 95.726562 39.226562 C 78.714844 54.835938 78.957031 72.28125 79.230469 89.058594 Z M 184.621094 -2.488281 C 213.859375 -3.789062 239.300781 9.460938 256.214844 34.832031 C 287.554688 81.921875 283.328125 153.019531 246.019531 208.03125 C 230.65625 230.433594 211.101562 249.761719 188.503906 264.824219 C 177.878906 272.304688 166.398438 278.484375 154.402344 283.378906 C 134.621094 291.296875 110.246094 295.703125 79.917969 297.03125 C 58.492188 297.988281 31.859375 289.789062 8.761719 275.066406 C -14.988281 259.980469 -30.570312 241.050781 -33.976562 223.269531 C -38.636719 199.136719 -20.730469 179.382812 17.445312 166.070312 C 82.261719 143.613281 81.898438 115.933594 81.570312 89.183594 C 81.3125 72.070312 81.167969 55.972656 97.222656 41.066406 C 127.027344 13.480469 156.390625 -1.136719 184.621094 -2.488281 Z M 100.753906 95.648438 C 99.773438 117.050781 98.671875 139.203125 47.707031 158.121094 C 6.75 173.296875 1.417969 194.640625 4.199219 209.957031 C 7.046875 225.695312 20.0625 242.476562 39.878906 255.851562 C 58.96875 268.761719 81.273438 276.398438 99.554688 276.195312 C 126.132812 276.015625 146.082031 272.882812 162.277344 266.28125 C 172.398438 261.957031 181.902344 256.59375 190.726562 249.9375 C 209.457031 236.601562 225.679688 220.113281 238.839844 201.28125 C 254.808594 178.496094 264.363281 151.929688 266.683594 124.226562 C 268.5625 98.515625 263.171875 73.921875 251.363281 54.941406 C 248.976562 51.042969 246.234375 47.460938 243.148438 44.03125 C 229.949219 29.164062 210.953125 20.78125 191.15625 21.074219 C 167.09375 21.222656 142.097656 32.550781 116.519531 54.746094 C 102.019531 67.300781 101.417969 81.6875 100.753906 95.648438 Z M 191.285156 23.34375 C 215.683594 23.210938 236.347656 34.867188 249.453125 56.179688 C 273.597656 95.261719 268.503906 154.414062 236.984375 199.925781 C 223.921875 218.511719 207.875 234.839844 189.40625 247.941406 C 180.761719 254.4375 171.421875 259.808594 161.476562 263.976562 C 145.460938 270.417969 125.847656 273.566406 99.523438 273.679688 C 60.785156 273.972656 12.128906 240.382812 6.496094 209.324219 C 2.742188 188.675781 17.230469 171.675781 48.4375 160.171875 C 100.855469 140.742188 101.914062 117.835938 103.015625 95.683594 C 103.597656 81.632812 104.304688 68.429688 118.109375 56.339844 C 143.328125 34.628906 167.890625 23.527344 191.285156 23.34375 Z M 78.691406 152.390625 C 46.644531 165.441406 42.503906 183.324219 44.753906 196.101562 C 49.664062 224.941406 89.820312 251.375 119.328125 252.855469 C 135.292969 253.621094 153.65625 253.503906 169.683594 246.894531 C 178.765625 243.1875 185.667969 237.9375 191.972656 232.90625 C 206.578125 221.53125 219.363281 208.128906 230.058594 193.105469 C 256.632812 155.375 262.589844 108.339844 244.863281 76.21875 C 242.726562 72.25 240.074219 68.589844 236.988281 65.160156 C 227.023438 54.070312 213.128906 47.464844 198.164062 46.753906 C 178.859375 45.648438 158.40625 53.53125 137.578125 70.027344 C 125.320312 79.769531 123.621094 91.160156 122.109375 102.226562 C 119.859375 119.207031 117.25 136.667969 78.691406 152.390625 Z M 139.152344 71.953125 C 159.539062 55.855469 179.316406 48.101562 198.117188 49.183594 C 216.925781 50.097656 233.871094 60.800781 242.871094 77.371094 C 260.210938 108.882812 254.320312 154.75 228.203125 191.75 C 217.605469 206.527344 204.90625 219.847656 190.644531 231.078125 C 184.429688 236.027344 177.703125 241.117188 168.964844 244.675781 C 153.28125 251.136719 135.253906 251.269531 119.621094 250.523438 C 90.949219 249.089844 51.917969 223.550781 47.199219 195.808594 C 44.257812 178.722656 55.578125 164.574219 79.746094 154.625 C 119.585938 138.382812 122.277344 119.417969 124.6875 102.617188 C 126.035156 91.539062 127.601562 81.0625 139.152344 71.953125 Z M 109.671875 146.660156 C 86.710938 157.59375 83.671875 172.097656 85.128906 182.402344 C 88.523438 205.125 116.886719 226.410156 138.933594 229.507812 C 150.992188 231.238281 164.832031 232.640625 176.921875 227.5 C 183.789062 224.511719 188.71875 220.078125 193.128906 215.953125 C 203.441406 206.527344 212.792969 196.210938 221.109375 184.921875 C 242.628906 155.554688 249.113281 122.039062 238.191406 97.488281 C 236.402344 93.371094 233.921875 89.550781 230.917969 86.207031 C 224.195312 78.726562 215.066406 73.886719 205.167969 72.4375 C 190.707031 70.164062 174.628906 74.589844 158.722656 85.226562 C 148.46875 92.058594 146.015625 100.3125 143.367188 109.054688 C 139.597656 121.511719 135.8125 134.300781 109.671875 146.660156 Z M 160.03125 87.394531 C 175.417969 77.0625 190.90625 72.6875 204.699219 74.929688 C 218.425781 76.914062 230.265625 85.839844 235.957031 98.542969 C 246.589844 122.242188 240.148438 154.921875 219.085938 183.554688 C 210.867188 194.601562 201.683594 204.925781 191.382812 214.1875 C 186.96875 218.308594 182.304688 222.503906 175.871094 225.265625 C 164.375 230.1875 150.871094 228.800781 139.222656 227.175781 C 118.015625 224.125 90.699219 203.648438 87.332031 182.015625 C 85.292969 168.414062 93.28125 156.9375 110.480469 148.796875 C 137.484375 135.980469 141.746094 122.125 145.417969 109.917969 C 148.308594 101.269531 150.550781 93.847656 160.03125 87.394531 Z M 140.566406 141.003906 C 126.507812 149.980469 124.738281 161.117188 125.664062 168.878906 C 127.691406 185.832031 143.972656 201.109375 158.617188 206.246094 C 165.363281 208.617188 175.5625 212.171875 184.332031 208.113281 C 188.714844 206.082031 191.410156 202.707031 193.832031 199.734375 L 194.457031 199.011719 C 196.703125 196.199219 198.949219 193.382812 201.273438 190.65625 C 204.945312 186.242188 208.714844 181.582031 212.230469 176.988281 C 229.414062 155.019531 235.984375 135.589844 231.582031 119.179688 C 230.480469 114.765625 228.1875 110.621094 225.179688 107.277344 C 221.699219 103.402344 217.25 100.402344 212.316406 98.632812 C 202.457031 94.921875 191.265625 95.753906 180.007812 100.941406 C 170.988281 105.070312 167.410156 110.832031 163.277344 117.570312 C 158.625 124.613281 153.585938 132.644531 140.566406 141.003906 Z M 180.914062 102.832031 C 191.570312 97.867188 202.085938 97.167969 211.375 100.59375 C 220.660156 104.019531 227 110.890625 229.296875 119.648438 C 233.40625 135.203125 227.039062 153.972656 210.304688 175.378906 C 206.703125 180.050781 203.117188 184.386719 199.347656 189.046875 C 197.101562 191.859375 194.777344 194.585938 192.53125 197.402344 L 191.90625 198.121094 C 189.570312 201.015625 187.230469 204.074219 183.277344 205.878906 C 176.058594 209.183594 167.476562 206.714844 159.332031 203.851562 C 151.195312 200.824219 144.082031 195.921875 138.308594 189.496094 C 132.847656 183.421875 128.800781 176.085938 127.867188 168.492188 C 126.652344 158.285156 131.3125 149.480469 141.726562 142.828125 C 155.179688 134.238281 160.402344 125.882812 164.984375 118.582031 C 169.089844 112.347656 172.65625 106.753906 180.914062 102.832031 Z M 177.816406 182.625 C 179.871094 184.914062 185.953125 191.855469 191.570312 188.71875 C 194.160156 187.347656 194.804688 184.699219 195.429688 182.386719 L 195.640625 181.558594 C 197.070312 176.773438 199.652344 172.382812 203.203125 168.71875 C 205.15625 166.640625 207.445312 164.582031 209.734375 162.527344 C 216.515625 156.433594 223.636719 150.1875 224.894531 140.785156 C 225.550781 134.785156 223.605469 128.898438 219.394531 124.570312 L 219.316406 124.480469 C 214.726562 119.375 208.191406 116.179688 201.332031 115.984375 C 189.601562 115.863281 177.710938 123.53125 171.03125 135.582031 C 162.835938 150.902344 165.246094 168.464844 177.816406 182.625 Z M 201.453125 118.421875 C 207.722656 118.671875 213.605469 121.496094 217.800781 126.160156 C 221.449219 130.042969 223.265625 135.25 222.730469 140.503906 C 221.519531 149.070312 214.828125 155.085938 208.3125 160.941406 C 206.023438 163 203.644531 165.136719 201.601562 167.292969 C 197.875 171.117188 195.109375 175.832031 193.574219 181.03125 L 193.363281 181.855469 C 192.84375 183.757812 192.3125 185.824219 190.675781 186.660156 C 188 188.109375 184.332031 186.15625 179.746094 181.050781 C 167.886719 167.683594 165.589844 151.132812 173.394531 136.796875 C 179.449219 125.46875 190.480469 118.257812 201.453125 118.421875 Z M 201.453125 118.421875 " fill-opacity="1" fill-rule="nonzero"/></g></g></g></g></svg>